<?xml version="1.0" encoding="UTF-8" standalone="no"?>
<svg
   viewBox="0 0 364 415.06"
   version="1.1"
   id="svg3865"
   sodipodi:docname="ABS_Text.svg"
   inkscape:version="1.2.2 (732a01da63, 2022-12-09)"
   xmlns:inkscape="http://www.inkscape.org/namespaces/inkscape"
   xmlns:sodipodi="http://sodipodi.sourceforge.net/DTD/sodipodi-0.dtd"
   xmlns="http://www.w3.org/2000/svg"
   xmlns:svg="http://www.w3.org/2000/svg"
   xmlns:rdf="http://www.w3.org/1999/02/22-rdf-syntax-ns#"
   xmlns:cc="http://creativecommons.org/ns#"
   xmlns:dc="http://purl.org/dc/elements/1.1/">
  <metadata
     id="metadata3869">
    <rdf:RDF>
      <cc:Work
         rdf:about="">
        <dc:format>image/svg+xml</dc:format>
        <dc:type
           rdf:resource="http://purl.org/dc/dcmitype/StillImage" />
      </cc:Work>
    </rdf:RDF>
  </metadata>
  <sodipodi:namedview
     pagecolor="#ffffff"
     bordercolor="#666666"
     borderopacity="1"
     objecttolerance="10"
     gridtolerance="10"
     guidetolerance="10"
     inkscape:pageopacity="0"
     inkscape:pageshadow="2"
     inkscape:window-width="2558"
     inkscape:window-height="1401"
     id="namedview3867"
     showgrid="false"
     inkscape:zoom="2.0478967"
     inkscape:cx="104.25331"
     inkscape:cy="208.0183"
     inkscape:window-x="1273"
     inkscape:window-y="0"
     inkscape:window-maximized="0"
     inkscape:current-layer="svg3865"
     inkscape:showpageshadow="0"
     inkscape:pagecheckerboard="0"
     inkscape:deskcolor="#d1d1d1" />
  <defs
     id="defs3802">
    <style
       id="style3792">.cls-1{filter:url(#luminosity-noclip);}.cls-2{mask:url(#mask);}.cls-3,.cls-6{fill:#eee8d5;}.cls-4,.cls-5{fill:#002b36;}.cls-5{stroke:#eee8d5;stroke-miterlimit:10;stroke-width:4px;}.cls-6{font-size:45px;font-family:Furore, Furore;}.cls-7{font-size:29px;}</style>
    <filter
       id="luminosity-noclip"
       x="-12.5"
       y="0"
       width="388"
       height="415.06"
       filterUnits="userSpaceOnUse"
       color-interpolation-filters="sRGB">
      <feFlood
         flood-color="#fff"
         result="bg"
         id="feFlood3794" />
      <feBlend
         in="SourceGraphic"
         in2="bg"
         id="feBlend3796" />
    </filter>
    <mask
       id="mask"
       x="-12.5"
       y="0"
       width="388"
       height="415.06"
       maskUnits="userSpaceOnUse">
      <rect
         class="cls-1"
         x="-12.5"
         y="176.06"
         width="388"
         height="48"
         id="rect3799" />
    </mask>
  </defs>
  <title
     id="title3804">TextAsset 2</title>
  <g
     id="Layer_2"
     data-name="Layer 2">
    <g
       class="cls-2"
       mask="url(#mask)"
       id="g3855">
      <g
         id="Layer_2-2"
         data-name="Layer 2">
        <path
           style="fill:#eee8d5"
           d="m 304.5,396.06 a 13,13 0 0 1 -13,13 13,13 0 0 1 -13,-13 13,13 0 0 1 13,-13 13,13 0 0 1 13,13 z"
           id="circle3806" />
        <path
           style="fill:#eee8d5"
           d="m 353.5,135.06 a 8,8 0 0 1 -8,8 8,8 0 0 1 -8,-8 8,8 0 0 1 8,-8 8,8 0 0 1 8,8 z"
           id="circle3808" />
        <path
           style="fill:#eee8d5"
           d="m 347.5,323.06 a 4,4 0 0 1 -4,4 4,4 0 0 1 -4,-4 4,4 0 0 1 4,-4 4,4 0 0 1 4,4 z"
           id="circle3810" />
        <path
           style="fill:#eee8d5"
           d="m 21.5,136.06 a 7,7 0 0 1 -7,7 7,7 0 0 1 -7,-7 7,7 0 0 1 7,-7 7,7 0 0 1 7,7 z"
           id="circle3812" />
        <path
           style="fill:#eee8d5"
           d="m 14.5,166.06 a 3,3 0 0 1 -3,3 3,3 0 0 1 -3,-3 3,3 0 0 1 3,-3 3,3 0 0 1 3,3 z"
           id="circle3814" />
        <path
           style="fill:#eee8d5"
           d="m 23.5,236.06 a 9,9 0 0 1 -9,9 9,9 0 0 1 -9,-9 9,9 0 0 1 9,-9 9,9 0 0 1 9,9 z"
           id="circle3816" />
        <path
           style="fill:#eee8d5"
           d="m 30.5,290.06 a 9,9 0 0 1 -9,9 9,9 0 0 1 -9,-9 9,9 0 0 1 9,-9 9,9 0 0 1 9,9 z"
           id="circle3818" />
        <path
           style="fill:#eee8d5"
           d="m 44.5,323.06 a 7,7 0 0 1 -7,7 7,7 0 0 1 -7,-7 7,7 0 0 1 7,-7 7,7 0 0 1 7,7 z"
           id="circle3820" />
        <path
           style="fill:#eee8d5"
           d="m 82.5,352.06 a 6,6 0 0 1 -6,6 6,6 0 0 1 -6,-6 6,6 0 0 1 6,-6 6,6 0 0 1 6,6 z"
           id="circle3822" />
        <path
           style="fill:#eee8d5"
           d="m 85.5,383.06 a 3,3 0 0 1 -3,3 3,3 0 0 1 -3,-3 3,3 0 0 1 3,-3 3,3 0 0 1 3,3 z"
           id="circle3824" />
        <path
           style="fill:#eee8d5"
           d="m 129.5,380.06 a 10,10 0 0 1 -10,10 10,10 0 0 1 -10,-10 10,10 0 0 1 10,-10 10,10 0 0 1 10,10 z"
           id="circle3826" />
        <path
           style="fill:#eee8d5"
           d="m 164.5,401.06 a 8,8 0 0 1 -8,8 8,8 0 0 1 -8,-8 8,8 0 0 1 8,-8 8,8 0 0 1 8,8 z"
           id="circle3828" />
        <path
           style="fill:#eee8d5"
           d="m 200.5,407.06 a 6,6 0 0 1 -6,6 6,6 0 0 1 -6,-6 6,6 0 0 1 6,-6 6,6 0 0 1 6,6 z"
           id="circle3830" />
        <path
           style="fill:#eee8d5"
           d="m 323.5,378.06 a 2,2 0 0 1 -2,2 2,2 0 0 1 -2,-2 2,2 0 0 1 2,-2 2,2 0 0 1 2,2 z"
           id="circle3832" />
        <path
           style="fill:#eee8d5"
           d="m 315.5,339.06 a 12,12 0 0 1 -12,12 12,12 0 0 1 -12,-12 12,12 0 0 1 12,-12 12,12 0 0 1 12,12 z"
           id="circle3834" />
        <path
           style="fill:#eee8d5"
           d="m 247.5,407.06 a 8,8 0 0 1 -8,8 8,8 0 0 1 -8,-8 8,8 0 0 1 8,-8 8,8 0 0 1 8,8 z"
           id="circle3836" />
        <path
           style="fill:#eee8d5"
           d="m 361.5,166.06 a 8,8 0 0 1 -8,8 8,8 0 0 1 -8,-8 8,8 0 0 1 8,-8 8,8 0 0 1 8,8 z"
           id="circle3838" />
        <path
           style="fill:#eee8d5"
           d="m 345.5,281.06 a 12,12 0 0 1 -12,12 12,12 0 0 1 -12,-12 12,12 0 0 1 12,-12 12,12 0 0 1 12,12 z"
           id="circle3840" />
        <path
           style="fill:#eee8d5"
           d="m 357.5,237.06 a 10,10 0 0 1 -10,10 10,10 0 0 1 -10,-10 10,10 0 0 1 10,-10 10,10 0 0 1 10,10 z"
           id="circle3842" />
        <path
           id="path3844"
           class="cls-3"
           d="M 34.550781 83.019531 C 34.550781 90.159524 30.78054 96.600161 24.310547 101.16016 A 25 25 0 0 0 30.640625 112.44922 A 28 28 0 0 0 31.380859 142.74023 A 28 28 0 0 0 35.660156 173.65039 A 32 32 0 0 0 35.789062 190.83984 A 25 25 0 0 0 37.990234 232.63086 A 29 29 0 0 0 59.5 281.06055 A 29.29 29.29 0 0 0 62.710938 280.88086 C 62.580938 282.26086 62.5 283.65055 62.5 285.06055 A 43 43 0 0 0 105.5 328.06055 L 106.80078 328.06055 A 20 20 0 0 0 136.00977 352.06055 A 22 22 0 0 0 154.00977 365.92969 A 26 26 0 0 0 201.65039 368.82031 A 16.59 16.59 0 0 0 211.33984 367.60938 A 33 33 0 1 0 266.23047 331.4707 A 26.93 26.93 0 0 0 274.08008 316.57031 A 33 33 0 0 0 284.15039 262.13086 L 284.53906 261.96094 C 285.53906 262.03094 286.48094 262.08008 287.46094 262.08008 A 39 39 0 0 0 319.06055 200.24023 A 26 26 0 0 0 318.06055 151.55078 L 318.14062 151.53906 A 33 33 0 0 0 318.67969 113.34961 A 27.93 27.93 0 0 0 328.5 92.060547 L 328.5 91.210938 C 323.5 101.01093 309.72998 108.06055 293.5 108.06055 L 293.78906 108.06055 L 288.5 145.06055 L 280.5 132.06055 L 270.5 260.06055 L 255.5 237.06055 L 243.5 299.06055 L 223.5 282.06055 L 210.5 315.06055 L 193.5 297.06055 L 174.5 357.06055 L 148.57031 282.05078 L 148.38086 282.05078 A 43 43 0 0 0 148.1543 280.84375 L 146.5 276.06055 L 130.5 307.06055 L 98.5 232.06055 L 84.5 260.06055 L 78.5 135.06055 L 66.5 154.06055 L 62.810547 107.35938 A 54.13 54.13 0 0 0 63.568359 107.41992 C 46.977125 104.95227 34.550781 94.975321 34.550781 83.019531 z M 293.5 108.06055 A 50.54 50.54 0 0 1 283.75391 107.1543 C 286.86381 107.72757 290.1215 108.06055 293.5 108.06055 z M 274.00195 104.2793 C 276.86057 105.48113 279.96858 106.42815 283.27734 107.07031 A 50.54 50.54 0 0 1 274.00195 104.2793 z M 74.990234 107.91016 C 73.860236 107.98016 72.71078 108.01953 71.550781 108.01953 C 71.224473 108.01953 70.908271 107.992 70.583984 107.98633 A 54.13 54.13 0 0 0 71.5 108.06055 C 72.685897 108.06055 73.856273 108.01514 75.013672 107.94141 A 28 28 0 0 0 74.990234 107.91016 z " />
        <path
           id="polyline3848"
           style="fill:#eee8d5"
           d="M 108.20898 86.060547 C 108.12394 86.540155 108.01137 87.013519 107.88672 87.484375 L 129.5 167.06055 L 150 152.56055 L 164.5 172.06055 L 180.5 153.06055 L 198.5 172.06055 L 213 151.56055 L 239 168.56055 L 257.14648 87.634766 C 257.00414 87.115308 256.88503 86.590753 256.79102 86.060547 L 256.20898 86.060547 C 254.01159 98.452674 238.42511 108.06055 219.5 108.06055 C 200.57489 108.06055 184.98841 98.452674 182.79102 86.060547 L 182.20898 86.060547 C 180.01159 98.452674 164.42511 108.06055 145.5 108.06055 C 126.57489 108.06055 110.98841 98.452674 108.79102 86.060547 L 108.20898 86.060547 z " />
        <path
           class="cls-5"
           d="m 62.81,107.36 a 54.13,54.13 0 0 0 8.69,0.7 c 20.43,0 37,-11.19 37,-25 0,13.81 16.57,25 37,25 20.43,0 37,-11.19 37,-25 0,13.81 16.57,25 37,25 20.43,0 37,-11.19 37,-25 0,13.81 16.57,25 37,25 h 0.29 l -13.29,-77 -22,27 -18,-42 -16,13 -16,-26 -31,16 -20,-16 -14,26 -15,-19 -27,43 -20,-20 z"
           id="path3850"
           style="display:inline;fill:none"
           inkscape:label="path3850" />
        <path
           class="cls-3"
           d="M364,107.56a47.39,47.39,0,0,1-5.72,0,31.07,31.07,0,0,1-5.65-1.09,42.57,42.57,0,0,1-10.69-4.35,29.41,29.41,0,0,1-8.85-7.7A19.88,19.88,0,0,1,329,83.06h3a20.35,20.35,0,0,1-4.35,12.27,31.53,31.53,0,0,1-9.79,8.27,52.81,52.81,0,0,1-48.72,0,31.53,31.53,0,0,1-9.79-8.27A20.35,20.35,0,0,1,255,83.06h3a20.35,20.35,0,0,1-4.35,12.27,31.53,31.53,0,0,1-9.79,8.27,52.81,52.81,0,0,1-48.72,0,31.53,31.53,0,0,1-9.79-8.27A20.35,20.35,0,0,1,181,83.06a1.5,1.5,0,0,1,3,0,20.35,20.35,0,0,1-4.35,12.27,31.53,31.53,0,0,1-9.79,8.27,52.81,52.81,0,0,1-48.72,0,31.53,31.53,0,0,1-9.79-8.27A20.35,20.35,0,0,1,107,83.06h3a20.35,20.35,0,0,1-4.35,12.27,31.53,31.53,0,0,1-9.79,8.27,50.45,50.45,0,0,1-24.36,6,50.45,50.45,0,0,1-24.36-6,31.53,31.53,0,0,1-9.79-8.27A20.35,20.35,0,0,1,33,83.06h3a21.71,21.71,0,0,1-3.93,11.77,27.67,27.67,0,0,1-9.05,8.1,38.39,38.39,0,0,1-11.21,4.15,50.29,50.29,0,0,1-11.8,1,49.92,49.92,0,0,0,11.63-1.71,37.27,37.27,0,0,0,10.6-4.7,25.8,25.8,0,0,0,8-8A19.07,19.07,0,0,0,33,83.06a1.5,1.5,0,0,1,3-.12v.12h0a17.34,17.34,0,0,0,3.75,10.46A28.56,28.56,0,0,0,48.61,101a47.48,47.48,0,0,0,22.89,5.57A47.48,47.48,0,0,0,94.39,101a28.56,28.56,0,0,0,8.86-7.47A17.34,17.34,0,0,0,107,83.06a1.5,1.5,0,0,1,3,0,17.34,17.34,0,0,0,3.75,10.46,28.56,28.56,0,0,0,8.86,7.47,49.83,49.83,0,0,0,45.78,0,28.56,28.56,0,0,0,8.86-7.47A17.34,17.34,0,0,0,181,83.06h3a17.34,17.34,0,0,0,3.75,10.46,28.56,28.56,0,0,0,8.86,7.47,49.83,49.83,0,0,0,45.78,0,28.56,28.56,0,0,0,8.86-7.47A17.34,17.34,0,0,0,255,83.06a1.5,1.5,0,0,1,3,0,17.34,17.34,0,0,0,3.75,10.46,28.56,28.56,0,0,0,8.86,7.47,49.83,49.83,0,0,0,45.78,0,28.56,28.56,0,0,0,8.86-7.47A17.34,17.34,0,0,0,329,83.06a1.5,1.5,0,0,1,3,0v0h0a17.21,17.21,0,0,0,3,10,27.47,27.47,0,0,0,7.82,7.66,42.72,42.72,0,0,0,10.1,4.86,30.41,30.41,0,0,0,5.44,1.49A47.19,47.19,0,0,0,364,107.56Z"
           id="path3852" />
      </g>
    </g>
    <g
       id="Layer_4"
       data-name="Layer 4">
      <g
         aria-label="ARCTIC BEARDSTUDIO"
         transform="translate(7.34 215.95)"
         style="font-size:45px;font-family:Furore, Furore;fill:#eee8d5"
         id="text3861">
        <path
           d="m 8.1,-15.705 v -3.15 l 6.255,-6.345 h 9.45 v 9.495 z M 8.1,0 V -9.405 H 23.805 V 0 H 30.06 V -31.5 H 11.205 L 1.8,-22.005 V 0 Z"
           style="font-size:45px;font-family:Furore, Furore;fill:#eee8d5"
           id="path3871" />
        <path
           d="M 40.89375,-15.705 V -25.2 h 15.705 v 9.495 z M 62.85375,0 v -6.3 l -3.105,-3.105 3.105,-3.15 v -15.75 l -3.105,-3.195 h -25.155 V 0 h 6.3 v -9.405 h 9.405 l 3.15,3.105 3.15,3.195 V 0 Z"
           style="font-size:45px;font-family:Furore, Furore;fill:#eee8d5"
           id="path3873" />
        <path
           d="m 92.531953,0 3.105,-3.105 v -6.3 h -6.255 V -6.3 h -15.705 v -18.9 h 15.705 v 3.15 h 6.255 v -6.255 l -3.105,-3.195 h -22.05 l -3.105,3.195 v 25.2 l 3.105,3.105 z"
           style="font-size:45px;font-family:Furore, Furore;fill:#eee8d5"
           id="path3875" />
        <path
           d="m 115.6957,0 v -25.2 h 10.935 v -6.3 H 98.370703 v 6.3 H 109.3957 V 0 Z"
           style="font-size:45px;font-family:Furore, Furore;fill:#eee8d5"
           id="path3877" />
        <path
           d="m 136.0793,0 v -31.5 h -6.3 V 0 Z"
           style="font-size:45px;font-family:Furore, Furore;fill:#eee8d5"
           id="path3879" />
        <path
           d="m 165.74484,0 3.105,-3.105 v -6.3 h -6.255 V -6.3 h -15.705 v -18.9 h 15.705 v 3.15 h 6.255 v -6.255 l -3.105,-3.195 h -22.05 l -3.105,3.195 v 25.2 l 3.105,3.105 z"
           style="font-size:45px;font-family:Furore, Furore;fill:#eee8d5"
           id="path3881" />
        <path
           d="m 197.25117,-6.3 v -6.255 h 15.705 V -6.3 Z m 0,-12.555 V -25.2 h 15.705 v 6.345 z m 18.855,18.855 3.105,-3.105 v -9.45 l -3.105,-3.15 3.105,-3.15 v -9.45 l -3.105,-3.195 h -25.155 V 0 Z"
           style="font-size:45px;font-family:Furore, Furore;fill:#eee8d5"
           id="path3883" />
        <path
           d="m 250.46437,0 v -6.3 h -20.43 v -6.255 h 18.855 v -6.3 h -18.855 V -25.2 h 20.43 v -6.3 h -26.73 V 0 Z"
           style="font-size:45px;font-family:Furore, Furore;fill:#eee8d5"
           id="path3885" />
        <path
           d="m 260.34609,-15.705 v -3.15 l 6.255,-6.345 h 9.45 v 9.495 z m 0,15.705 v -9.405 h 15.705 V 0 h 6.255 v -31.5 h -18.855 l -9.405,9.495 V 0 Z"
           style="font-size:45px;font-family:Furore, Furore;fill:#eee8d5"
           id="path3887" />
        <path
           d="M 293.13984,-15.705 V -25.2 h 15.705 v 9.495 z M 315.09984,0 v -6.3 l -3.105,-3.105 3.105,-3.15 v -15.75 l -3.105,-3.195 h -25.155 V 0 h 6.3 v -9.405 h 9.405 l 3.15,3.105 3.15,3.195 V 0 Z"
           style="font-size:45px;font-family:Furore, Furore;fill:#eee8d5"
           id="path3889" />
        <path
           d="m 347.88305,-22.05 -9.405,-9.45 h -18.855 V 0 h 25.155 l 3.105,-3.105 z m -6.255,15.75 h -15.705 v -18.9 h 9.405 l 6.3,6.3 z"
           style="font-size:45px;font-family:Furore, Furore;fill:#eee8d5"
           id="path3891" />
        <path
           d="m 137.151,34.799999 2.001,-2.001 v -8.149 l -2.001,-2.03 H 125 v -4.06 h 10.121 v 2.03 h 4.031 v -4.031 l -2.001,-2.059 h -14.21 l -2.001,2.059 v 8.7 l 2.001,1.45 h 12.18 v 4.031 H 125 v -2.001 h -4.06 v 4.06 l 2.001,2.001 z"
           style=""
           id="path3893" />
        <path
           d="m 152.36195,34.799999 v -16.24 h 7.047 v -4.06 h -18.212 v 4.06 h 7.105 v 16.24 z"
           style=""
           id="path3895" />
        <path
           d="m 161.43804,14.499999 v 18.299 l 2.001,2.001 h 14.21 l 2.001,-2.001 v -18.299 h -4.031 v 16.24 h -10.121 v -16.24 z"
           style=""
           id="path3897" />
        <path
           d="m 200.777,20.589999 -6.061,-6.09 h -12.151 v 20.3 h 16.211 l 2.001,-2.001 z m -4.031,10.15 h -10.121 v -12.18 h 6.061 l 4.06,4.06 z"
           style=""
           id="path3899" />
        <path
           d="m 207.46875,34.799999 v -20.3 h -4.06 v 20.3 z"
           style=""
           id="path3901" />
        <path
           d="m 214.43554,30.739999 v -12.18 h 10.121 v 12.18 z m 12.151,4.06 2.001,-2.001 v -16.24 l -2.001,-2.059 h -14.21 l -2.001,2.059 v 16.24 l 2.001,2.001 z"
           style=""
           id="path3903" />
      </g>
    </g>
  </g>
</svg>
