<?xml version="1.0" encoding="UTF-8" standalone="no"?>
<svg
   xmlns:dc="http://purl.org/dc/elements/1.1/"
   xmlns:cc="http://creativecommons.org/ns#"
   xmlns:rdf="http://www.w3.org/1999/02/22-rdf-syntax-ns#"
   xmlns:svg="http://www.w3.org/2000/svg"
   xmlns="http://www.w3.org/2000/svg"
   xmlns:sodipodi="http://sodipodi.sourceforge.net/DTD/sodipodi-0.dtd"
   xmlns:inkscape="http://www.inkscape.org/namespaces/inkscape"
   viewBox="0 0 364 415.06"
   version="1.1"
   id="svg3865"
   sodipodi:docname="ABS_Text.svg"
   inkscape:version="0.92.3 (2405546, 2018-03-11)">
  <metadata
     id="metadata3869">
    <rdf:RDF>
      <cc:Work
         rdf:about="">
        <dc:format>image/svg+xml</dc:format>
        <dc:type
           rdf:resource="http://purl.org/dc/dcmitype/StillImage" />
      </cc:Work>
    </rdf:RDF>
  </metadata>
  <sodipodi:namedview
     pagecolor="#ffffff"
     bordercolor="#666666"
     borderopacity="1"
     objecttolerance="10"
     gridtolerance="10"
     guidetolerance="10"
     inkscape:pageopacity="0"
     inkscape:pageshadow="2"
     inkscape:window-width="1920"
     inkscape:window-height="1017"
     id="namedview3867"
     showgrid="false"
     inkscape:zoom="2.0478967"
     inkscape:cx="182"
     inkscape:cy="207.53"
     inkscape:window-x="1912"
     inkscape:window-y="-8"
     inkscape:window-maximized="1"
     inkscape:current-layer="svg3865" />
  <defs
     id="defs3802">
    <style
       id="style3792">.cls-1{filter:url(#luminosity-noclip);}.cls-2{mask:url(#mask);}.cls-3,.cls-6{fill:#eee8d5;}.cls-4,.cls-5{fill:#002b36;}.cls-5{stroke:#eee8d5;stroke-miterlimit:10;stroke-width:4px;}.cls-6{font-size:45px;font-family:Furore, Furore;}.cls-7{font-size:29px;}</style>
    <filter
       id="luminosity-noclip"
       x="-12.5"
       y="0"
       width="388"
       height="415.06"
       filterUnits="userSpaceOnUse"
       color-interpolation-filters="sRGB">
      <feFlood
         flood-color="#fff"
         result="bg"
         id="feFlood3794" />
      <feBlend
         in="SourceGraphic"
         in2="bg"
         id="feBlend3796" />
    </filter>
    <mask
       id="mask"
       x="-12.5"
       y="0"
       width="388"
       height="415.06"
       maskUnits="userSpaceOnUse">
      <rect
         class="cls-1"
         x="-12.5"
         y="176.06"
         width="388"
         height="48"
         id="rect3799" />
    </mask>
  </defs>
  <title
     id="title3804">TextAsset 2</title>
  <g
     id="Layer_2"
     data-name="Layer 2">
    <g
       class="cls-2"
       mask="url(#mask)"
       id="g3855">
      <g
         id="Layer_2-2"
         data-name="Layer 2">
        <path
           style="fill:#eee8d5"
           d="m 304.5,396.06 a 13,13 0 0 1 -13,13 13,13 0 0 1 -13,-13 13,13 0 0 1 13,-13 13,13 0 0 1 13,13 z"
           id="circle3806" />
        <path
           style="fill:#eee8d5"
           d="m 353.5,135.06 a 8,8 0 0 1 -8,8 8,8 0 0 1 -8,-8 8,8 0 0 1 8,-8 8,8 0 0 1 8,8 z"
           id="circle3808" />
        <path
           style="fill:#eee8d5"
           d="m 347.5,323.06 a 4,4 0 0 1 -4,4 4,4 0 0 1 -4,-4 4,4 0 0 1 4,-4 4,4 0 0 1 4,4 z"
           id="circle3810" />
        <path
           style="fill:#eee8d5"
           d="m 21.5,136.06 a 7,7 0 0 1 -7,7 7,7 0 0 1 -7,-7 7,7 0 0 1 7,-7 7,7 0 0 1 7,7 z"
           id="circle3812" />
        <path
           style="fill:#eee8d5"
           d="m 14.5,166.06 a 3,3 0 0 1 -3,3 3,3 0 0 1 -3,-3 3,3 0 0 1 3,-3 3,3 0 0 1 3,3 z"
           id="circle3814" />
        <path
           style="fill:#eee8d5"
           d="m 23.5,236.06 a 9,9 0 0 1 -9,9 9,9 0 0 1 -9,-9 9,9 0 0 1 9,-9 9,9 0 0 1 9,9 z"
           id="circle3816" />
        <path
           style="fill:#eee8d5"
           d="m 30.5,290.06 a 9,9 0 0 1 -9,9 9,9 0 0 1 -9,-9 9,9 0 0 1 9,-9 9,9 0 0 1 9,9 z"
           id="circle3818" />
        <path
           style="fill:#eee8d5"
           d="m 44.5,323.06 a 7,7 0 0 1 -7,7 7,7 0 0 1 -7,-7 7,7 0 0 1 7,-7 7,7 0 0 1 7,7 z"
           id="circle3820" />
        <path
           style="fill:#eee8d5"
           d="m 82.5,352.06 a 6,6 0 0 1 -6,6 6,6 0 0 1 -6,-6 6,6 0 0 1 6,-6 6,6 0 0 1 6,6 z"
           id="circle3822" />
        <path
           style="fill:#eee8d5"
           d="m 85.5,383.06 a 3,3 0 0 1 -3,3 3,3 0 0 1 -3,-3 3,3 0 0 1 3,-3 3,3 0 0 1 3,3 z"
           id="circle3824" />
        <path
           style="fill:#eee8d5"
           d="m 129.5,380.06 a 10,10 0 0 1 -10,10 10,10 0 0 1 -10,-10 10,10 0 0 1 10,-10 10,10 0 0 1 10,10 z"
           id="circle3826" />
        <path
           style="fill:#eee8d5"
           d="m 164.5,401.06 a 8,8 0 0 1 -8,8 8,8 0 0 1 -8,-8 8,8 0 0 1 8,-8 8,8 0 0 1 8,8 z"
           id="circle3828" />
        <path
           style="fill:#eee8d5"
           d="m 200.5,407.06 a 6,6 0 0 1 -6,6 6,6 0 0 1 -6,-6 6,6 0 0 1 6,-6 6,6 0 0 1 6,6 z"
           id="circle3830" />
        <path
           style="fill:#eee8d5"
           d="m 323.5,378.06 a 2,2 0 0 1 -2,2 2,2 0 0 1 -2,-2 2,2 0 0 1 2,-2 2,2 0 0 1 2,2 z"
           id="circle3832" />
        <path
           style="fill:#eee8d5"
           d="m 315.5,339.06 a 12,12 0 0 1 -12,12 12,12 0 0 1 -12,-12 12,12 0 0 1 12,-12 12,12 0 0 1 12,12 z"
           id="circle3834" />
        <path
           style="fill:#eee8d5"
           d="m 247.5,407.06 a 8,8 0 0 1 -8,8 8,8 0 0 1 -8,-8 8,8 0 0 1 8,-8 8,8 0 0 1 8,8 z"
           id="circle3836" />
        <path
           style="fill:#eee8d5"
           d="m 361.5,166.06 a 8,8 0 0 1 -8,8 8,8 0 0 1 -8,-8 8,8 0 0 1 8,-8 8,8 0 0 1 8,8 z"
           id="circle3838" />
        <path
           style="fill:#eee8d5"
           d="m 345.5,281.06 a 12,12 0 0 1 -12,12 12,12 0 0 1 -12,-12 12,12 0 0 1 12,-12 12,12 0 0 1 12,12 z"
           id="circle3840" />
        <path
           style="fill:#eee8d5"
           d="m 357.5,237.06 a 10,10 0 0 1 -10,10 10,10 0 0 1 -10,-10 10,10 0 0 1 10,-10 10,10 0 0 1 10,10 z"
           id="circle3842" />
        <path
           class="cls-3"
           d="M318.14,151.54a33,33,0,0,0,.54-38.19,27.93,27.93,0,0,0,9.82-21.29c0-.29,0-.57,0-.85-5,9.8-18.77,16.85-35,16.85a50.54,50.54,0,0,1-19.69-3.84A33,33,0,0,0,258.87,137a33,33,0,0,0,.94,58.61,39.15,39.15,0,0,0-5.75,7.38,30,30,0,0,0-8.75,54.32c-.78.44-1.54.9-2.27,1.4a41,41,0,0,0-71.53,27.35c0,.34,0,.67,0,1a32.16,32.16,0,0,0-2.5,2.22,29.87,29.87,0,0,0-19.52-7.23l-1.11,0a43,43,0,0,0-28.83-37.66,33,33,0,0,0-18-48.81,32.07,32.07,0,0,0-4-5.69,32,32,0,0,0-13-34.34c0-.18,0-.35,0-.53a27.91,27.91,0,0,0-2.19-10.88,15,15,0,0,0-.9-24.85,28,28,0,0,0-6.47-11.38c-1.13.07-2.28.11-3.44.11-20.43,0-37-11.19-37-25,0,7.14-3.77,13.58-10.24,18.14a25,25,0,0,0,6.33,11.29,28,28,0,0,0,.74,30.29,28,28,0,0,0,4.28,30.91,32,32,0,0,0,.13,17.19,25,25,0,0,0,2.2,41.79A29,29,0,0,0,59.5,281.06a29.29,29.29,0,0,0,3.21-.18c-.13,1.38-.21,2.77-.21,4.18a43,43,0,0,0,43,43c.43,0,.86,0,1.3,0a20,20,0,0,0,29.21,24,22,22,0,0,0,18,13.87,26,26,0,0,0,47.64,2.89,16.59,16.59,0,0,0,9.69-1.21,33,33,0,1,0,54.89-36.14,26.93,26.93,0,0,0,7.85-14.9,33,33,0,0,0,10.07-54.44l.39-.17c1,.07,1.94.12,2.92.12a39,39,0,0,0,31.6-61.84,26,26,0,0,0-1-48.69Z"
           id="path3844" />
        <path
           class="cls-4"
           d="M66.5,154.06l12-19,6,125,14-28,32,75,16-31,28,81,19-60,17,18,13-33,20,17,12-62,15,23,10-128,8,13,5.29-37h-.29c-20.43,0-37-11.19-37-25,0,13.81-16.57,25-37,25s-37-11.19-37-25c0,13.81-16.57,25-37,25s-37-11.19-37-25c0,13.81-16.57,25-37,25a54.13,54.13,0,0,1-8.69-.7Z"
           id="path3846" />
        <path
           style="fill:#eee8d5"
           d="m 107.5,86.06 22,81 20.5,-14.5 14.5,19.5 16,-19 18,19 14.5,-20.5 26,17 18.5,-82.5"
           id="polyline3848" />
        <path
           class="cls-5"
           d="M62.81,107.36a54.13,54.13,0,0,0,8.69.7c20.43,0,37-11.19,37-25,0,13.81,16.57,25,37,25s37-11.19,37-25c0,13.81,16.57,25,37,25s37-11.19,37-25c0,13.81,16.57,25,37,25h.29l-13.29-77-22,27-18-42-16,13-16-26-31,16-20-16-14,26-15-19-27,43-20-20Z"
           id="path3850" />
        <path
           class="cls-3"
           d="M364,107.56a47.39,47.39,0,0,1-5.72,0,31.07,31.07,0,0,1-5.65-1.09,42.57,42.57,0,0,1-10.69-4.35,29.41,29.41,0,0,1-8.85-7.7A19.88,19.88,0,0,1,329,83.06h3a20.35,20.35,0,0,1-4.35,12.27,31.53,31.53,0,0,1-9.79,8.27,52.81,52.81,0,0,1-48.72,0,31.53,31.53,0,0,1-9.79-8.27A20.35,20.35,0,0,1,255,83.06h3a20.35,20.35,0,0,1-4.35,12.27,31.53,31.53,0,0,1-9.79,8.27,52.81,52.81,0,0,1-48.72,0,31.53,31.53,0,0,1-9.79-8.27A20.35,20.35,0,0,1,181,83.06a1.5,1.5,0,0,1,3,0,20.35,20.35,0,0,1-4.35,12.27,31.53,31.53,0,0,1-9.79,8.27,52.81,52.81,0,0,1-48.72,0,31.53,31.53,0,0,1-9.79-8.27A20.35,20.35,0,0,1,107,83.06h3a20.35,20.35,0,0,1-4.35,12.27,31.53,31.53,0,0,1-9.79,8.27,50.45,50.45,0,0,1-24.36,6,50.45,50.45,0,0,1-24.36-6,31.53,31.53,0,0,1-9.79-8.27A20.35,20.35,0,0,1,33,83.06h3a21.71,21.71,0,0,1-3.93,11.77,27.67,27.67,0,0,1-9.05,8.1,38.39,38.39,0,0,1-11.21,4.15,50.29,50.29,0,0,1-11.8,1,49.92,49.92,0,0,0,11.63-1.71,37.27,37.27,0,0,0,10.6-4.7,25.8,25.8,0,0,0,8-8A19.07,19.07,0,0,0,33,83.06a1.5,1.5,0,0,1,3-.12v.12h0a17.34,17.34,0,0,0,3.75,10.46A28.56,28.56,0,0,0,48.61,101a47.48,47.48,0,0,0,22.89,5.57A47.48,47.48,0,0,0,94.39,101a28.56,28.56,0,0,0,8.86-7.47A17.34,17.34,0,0,0,107,83.06a1.5,1.5,0,0,1,3,0,17.34,17.34,0,0,0,3.75,10.46,28.56,28.56,0,0,0,8.86,7.47,49.83,49.83,0,0,0,45.78,0,28.56,28.56,0,0,0,8.86-7.47A17.34,17.34,0,0,0,181,83.06h3a17.34,17.34,0,0,0,3.75,10.46,28.56,28.56,0,0,0,8.86,7.47,49.83,49.83,0,0,0,45.78,0,28.56,28.56,0,0,0,8.86-7.47A17.34,17.34,0,0,0,255,83.06a1.5,1.5,0,0,1,3,0,17.34,17.34,0,0,0,3.75,10.46,28.56,28.56,0,0,0,8.86,7.47,49.83,49.83,0,0,0,45.78,0,28.56,28.56,0,0,0,8.86-7.47A17.34,17.34,0,0,0,329,83.06a1.5,1.5,0,0,1,3,0v0h0a17.21,17.21,0,0,0,3,10,27.47,27.47,0,0,0,7.82,7.66,42.72,42.72,0,0,0,10.1,4.86,30.41,30.41,0,0,0,5.44,1.49A47.19,47.19,0,0,0,364,107.56Z"
           id="path3852" />
      </g>
    </g>
    <g
       id="Layer_4"
       data-name="Layer 4">
      <g
         aria-label="ARCTIC BEARDSTUDIO"
         transform="translate(7.34 215.95)"
         style="font-size:45px;font-family:Furore, Furore;fill:#eee8d5"
         id="text3861">
        <path
           d="m 8.1,-15.705 v -3.15 l 6.255,-6.345 h 9.45 v 9.495 z M 8.1,0 V -9.405 H 23.805 V 0 H 30.06 V -31.5 H 11.205 L 1.8,-22.005 V 0 Z"
           style="font-size:45px;font-family:Furore, Furore;fill:#eee8d5"
           id="path3871" />
        <path
           d="M 40.89375,-15.705 V -25.2 h 15.705 v 9.495 z M 62.85375,0 v -6.3 l -3.105,-3.105 3.105,-3.15 v -15.75 l -3.105,-3.195 h -25.155 V 0 h 6.3 v -9.405 h 9.405 l 3.15,3.105 3.15,3.195 V 0 Z"
           style="font-size:45px;font-family:Furore, Furore;fill:#eee8d5"
           id="path3873" />
        <path
           d="m 92.531953,0 3.105,-3.105 v -6.3 h -6.255 V -6.3 h -15.705 v -18.9 h 15.705 v 3.15 h 6.255 v -6.255 l -3.105,-3.195 h -22.05 l -3.105,3.195 v 25.2 l 3.105,3.105 z"
           style="font-size:45px;font-family:Furore, Furore;fill:#eee8d5"
           id="path3875" />
        <path
           d="m 115.6957,0 v -25.2 h 10.935 v -6.3 H 98.370703 v 6.3 H 109.3957 V 0 Z"
           style="font-size:45px;font-family:Furore, Furore;fill:#eee8d5"
           id="path3877" />
        <path
           d="m 136.0793,0 v -31.5 h -6.3 V 0 Z"
           style="font-size:45px;font-family:Furore, Furore;fill:#eee8d5"
           id="path3879" />
        <path
           d="m 165.74484,0 3.105,-3.105 v -6.3 h -6.255 V -6.3 h -15.705 v -18.9 h 15.705 v 3.15 h 6.255 v -6.255 l -3.105,-3.195 h -22.05 l -3.105,3.195 v 25.2 l 3.105,3.105 z"
           style="font-size:45px;font-family:Furore, Furore;fill:#eee8d5"
           id="path3881" />
        <path
           d="m 197.25117,-6.3 v -6.255 h 15.705 V -6.3 Z m 0,-12.555 V -25.2 h 15.705 v 6.345 z m 18.855,18.855 3.105,-3.105 v -9.45 l -3.105,-3.15 3.105,-3.15 v -9.45 l -3.105,-3.195 h -25.155 V 0 Z"
           style="font-size:45px;font-family:Furore, Furore;fill:#eee8d5"
           id="path3883" />
        <path
           d="m 250.46437,0 v -6.3 h -20.43 v -6.255 h 18.855 v -6.3 h -18.855 V -25.2 h 20.43 v -6.3 h -26.73 V 0 Z"
           style="font-size:45px;font-family:Furore, Furore;fill:#eee8d5"
           id="path3885" />
        <path
           d="m 260.34609,-15.705 v -3.15 l 6.255,-6.345 h 9.45 v 9.495 z m 0,15.705 v -9.405 h 15.705 V 0 h 6.255 v -31.5 h -18.855 l -9.405,9.495 V 0 Z"
           style="font-size:45px;font-family:Furore, Furore;fill:#eee8d5"
           id="path3887" />
        <path
           d="M 293.13984,-15.705 V -25.2 h 15.705 v 9.495 z M 315.09984,0 v -6.3 l -3.105,-3.105 3.105,-3.15 v -15.75 l -3.105,-3.195 h -25.155 V 0 h 6.3 v -9.405 h 9.405 l 3.15,3.105 3.15,3.195 V 0 Z"
           style="font-size:45px;font-family:Furore, Furore;fill:#eee8d5"
           id="path3889" />
        <path
           d="m 347.88305,-22.05 -9.405,-9.45 h -18.855 V 0 h 25.155 l 3.105,-3.105 z m -6.255,15.75 h -15.705 v -18.9 h 9.405 l 6.3,6.3 z"
           style="font-size:45px;font-family:Furore, Furore;fill:#eee8d5"
           id="path3891" />
        <path
           d="m 137.151,34.799999 2.001,-2.001 v -8.149 l -2.001,-2.03 H 125 v -4.06 h 10.121 v 2.03 h 4.031 v -4.031 l -2.001,-2.059 h -14.21 l -2.001,2.059 v 8.7 l 2.001,1.45 h 12.18 v 4.031 H 125 v -2.001 h -4.06 v 4.06 l 2.001,2.001 z"
           style=""
           id="path3893" />
        <path
           d="m 152.36195,34.799999 v -16.24 h 7.047 v -4.06 h -18.212 v 4.06 h 7.105 v 16.24 z"
           style=""
           id="path3895" />
        <path
           d="m 161.43804,14.499999 v 18.299 l 2.001,2.001 h 14.21 l 2.001,-2.001 v -18.299 h -4.031 v 16.24 h -10.121 v -16.24 z"
           style=""
           id="path3897" />
        <path
           d="m 200.777,20.589999 -6.061,-6.09 h -12.151 v 20.3 h 16.211 l 2.001,-2.001 z m -4.031,10.15 h -10.121 v -12.18 h 6.061 l 4.06,4.06 z"
           style=""
           id="path3899" />
        <path
           d="m 207.46875,34.799999 v -20.3 h -4.06 v 20.3 z"
           style=""
           id="path3901" />
        <path
           d="m 214.43554,30.739999 v -12.18 h 10.121 v 12.18 z m 12.151,4.06 2.001,-2.001 v -16.24 l -2.001,-2.059 h -14.21 l -2.001,2.059 v 16.24 l 2.001,2.001 z"
           style=""
           id="path3903" />
      </g>
    </g>
  </g>
</svg>
